<svg xmlns="http://www.w3.org/2000/svg" xmlns:xlink="http://www.w3.org/1999/xlink" contentStyleType="text/css" data-diagram-type="ACTIVITY" height="1059px" preserveAspectRatio="none" style="width:324px;height:1059px;background:#FFFFFF;" version="1.1" viewBox="0 0 324 1059" width="324px" zoomAndPan="magnify"><defs/><g><ellipse cx="148.7822" cy="20" fill="#222222" rx="10" ry="10" style="stroke:#222222;stroke-width:1;"/><rect fill="none" height="244.1719" style="stroke:#000000;stroke-width:1.5;" width="254.6699" x="21.4473" y="84"/><path d="M55.2021,84 L55.2021,93.2969 L45.2021,103.2969 L21.4473,103.2969" fill="none" style="stroke:#000000;stroke-width:1.5;"/><text fill="#000000" font-family="sans-serif" font-size="14" lengthAdjust="spacing" textLength="23.7549" x="24.4473" y="97.9951">IDE</text><rect fill="#F1F1F1" height="33.9688" rx="12.5" ry="12.5" style="stroke:#181818;stroke-width:0.5;" width="234.6699" x="31.4473" y="120.2969"/><text fill="#000000" font-family="sans-serif" font-size="12" lengthAdjust="spacing" textLength="214.6699" x="41.4473" y="141.4355">Mise &#224; jour de la branche principale</text><rect fill="#F1F1F1" height="33.9688" rx="12.5" ry="12.5" style="stroke:#181818;stroke-width:0.5;" width="205.8008" x="45.8818" y="174.2656"/><text fill="#000000" font-family="sans-serif" font-size="12" lengthAdjust="spacing" textLength="185.8008" x="55.8818" y="195.4043">Cr&#233;ation d'une branche d&#233;di&#233;e</text><rect fill="#F1F1F1" height="33.9688" rx="12.5" ry="12.5" style="stroke:#181818;stroke-width:0.5;" width="217.7656" x="39.8994" y="228.2344"/><text fill="#000000" font-family="sans-serif" font-size="12" lengthAdjust="spacing" textLength="197.7656" x="49.8994" y="249.373">D&#233;veloppement et ajout de tests</text><rect fill="#F1F1F1" height="33.9688" rx="12.5" ry="12.5" style="stroke:#181818;stroke-width:0.5;" width="113.2051" x="92.1797" y="282.2031"/><text fill="#000000" font-family="sans-serif" font-size="12" lengthAdjust="spacing" textLength="93.2051" x="102.1797" y="303.3418">Commit &amp; push</text><rect fill="none" height="569.4297" style="stroke:#000000;stroke-width:1.5;" width="275.5645" x="11" y="338.1719"/><path d="M69.5146,338.1719 L69.5146,347.4688 L59.5146,357.4688 L11,357.4688" fill="none" style="stroke:#000000;stroke-width:1.5;"/><text fill="#000000" font-family="sans-serif" font-size="14" lengthAdjust="spacing" textLength="48.5146" x="14" y="352.167">GitHub</text><rect fill="#F1F1F1" height="33.9688" rx="12.5" ry="12.5" style="stroke:#181818;stroke-width:0.5;" width="255.5645" x="21" y="374.4688"/><text fill="#000000" font-family="sans-serif" font-size="12" lengthAdjust="spacing" textLength="235.5645" x="31" y="395.6074">Ouverture et merge d'une Pull Request</text><rect fill="none" height="477.1641" style="stroke:#000000;stroke-width:1.5;" width="232.5508" x="32.5068" y="418.4375"/><path d="M139.5635,418.4375 L139.5635,427.7344 L129.5635,437.7344 L32.5068,437.7344" fill="none" style="stroke:#000000;stroke-width:1.5;"/><text fill="#000000" font-family="sans-serif" font-size="14" lengthAdjust="spacing" textLength="97.0566" x="35.5068" y="432.4326">GitHub Action</text><rect fill="#F1F1F1" height="33.9688" rx="12.5" ry="12.5" style="stroke:#181818;stroke-width:0.5;" width="212.5508" x="42.5068" y="454.7344"/><text fill="#000000" font-family="sans-serif" font-size="12" lengthAdjust="spacing" textLength="192.5508" x="52.5068" y="475.873">D&#233;clenchement du workflow CD</text><rect fill="#F1F1F1" height="33.9688" rx="12.5" ry="12.5" style="stroke:#181818;stroke-width:0.5;" width="203.5918" x="46.9863" y="508.7031"/><text fill="#000000" font-family="sans-serif" font-size="12" lengthAdjust="spacing" textLength="183.5918" x="56.9863" y="529.8418">Setup Node.js et d&#233;pendances</text><rect fill="#F1F1F1" height="33.9688" rx="12.5" ry="12.5" style="stroke:#181818;stroke-width:0.5;" width="145.1855" x="76.1895" y="566.8086"/><text fill="#000000" font-family="sans-serif" font-size="12" lengthAdjust="spacing" textLength="125.1855" x="86.1895" y="587.9473">Lancement des tests</text><rect fill="#F1F1F1" height="33.9688" rx="12.5" ry="12.5" style="stroke:#181818;stroke-width:0.5;" width="134.9023" x="81.3311" y="669.1797"/><text fill="#000000" font-family="sans-serif" font-size="12" lengthAdjust="spacing" textLength="114.9023" x="91.3311" y="690.3184">Arr&#234;t de la pipeline</text><ellipse cx="148.7822" cy="742.6641" fill="none" rx="11" ry="11" style="stroke:#222222;stroke-width:1;"/><ellipse cx="148.7822" cy="742.6641" fill="#222222" rx="6" ry="6" style="stroke:#222222;stroke-width:1;"/><polygon fill="#F1F1F1" points="101.0574,620.7773,196.5071,620.7773,208.5071,632.7773,196.5071,644.7773,101.0574,644.7773,89.0574,632.7773,101.0574,620.7773" style="stroke:#181818;stroke-width:0.5;"/><text fill="#000000" font-family="sans-serif" font-size="11" lengthAdjust="spacing" textLength="16.7578" x="152.7822" y="654.9878">oui</text><text fill="#000000" font-family="sans-serif" font-size="11" lengthAdjust="spacing" textLength="95.4497" x="101.0574" y="636.5854">&#201;chec des tests ?</text><text fill="#000000" font-family="sans-serif" font-size="11" lengthAdjust="spacing" textLength="20.6733" x="208.5071" y="630.1831">non</text><rect fill="#F1F1F1" height="33.9688" rx="12.5" ry="12.5" style="stroke:#181818;stroke-width:0.5;" width="160.168" x="68.6982" y="795.6641"/><text fill="#000000" font-family="sans-serif" font-size="12" lengthAdjust="spacing" textLength="140.168" x="78.6982" y="816.8027">Cr&#233;ation du build client</text><rect fill="#F1F1F1" height="33.9688" rx="12.5" ry="12.5" style="stroke:#181818;stroke-width:0.5;" width="197.6621" x="49.9512" y="849.6328"/><text fill="#000000" font-family="sans-serif" font-size="12" lengthAdjust="spacing" textLength="177.6621" x="59.9512" y="870.7715">Push automatique vers Surge</text><rect fill="none" height="82.2656" style="stroke:#000000;stroke-width:1.5;" width="211.6211" x="42.9717" y="917.6016"/><path d="M188.6992,917.6016 L188.6992,926.8984 L178.6992,936.8984 L42.9717,936.8984" fill="none" style="stroke:#000000;stroke-width:1.5;"/><text fill="#000000" font-family="sans-serif" font-size="14" lengthAdjust="spacing" textLength="135.7275" x="45.9717" y="931.5967">Serveur CDN Surge</text><rect fill="#F1F1F1" height="33.9688" rx="12.5" ry="12.5" style="stroke:#181818;stroke-width:0.5;" width="191.6211" x="52.9717" y="953.8984"/><text fill="#000000" font-family="sans-serif" font-size="12" lengthAdjust="spacing" textLength="171.6211" x="62.9717" y="975.0371">Red&#233;ploiement automatique</text><polygon fill="#F1F1F1" points="148.7822,50,160.7822,62,148.7822,74,136.7822,62,148.7822,50" style="stroke:#181818;stroke-width:0.5;"/><line style="stroke:#181818;stroke-width:1;" x1="148.7822" x2="148.7822" y1="154.2656" y2="174.2656"/><polygon fill="#181818" points="144.7822,164.2656,148.7822,174.2656,152.7822,164.2656,148.7822,168.2656" style="stroke:#181818;stroke-width:1;"/><line style="stroke:#181818;stroke-width:1;" x1="148.7822" x2="148.7822" y1="208.2344" y2="228.2344"/><polygon fill="#181818" points="144.7822,218.2344,148.7822,228.2344,152.7822,218.2344,148.7822,222.2344" style="stroke:#181818;stroke-width:1;"/><line style="stroke:#181818;stroke-width:1;" x1="148.7822" x2="148.7822" y1="262.2031" y2="282.2031"/><polygon fill="#181818" points="144.7822,272.2031,148.7822,282.2031,152.7822,272.2031,148.7822,276.2031" style="stroke:#181818;stroke-width:1;"/><line style="stroke:#181818;stroke-width:1;" x1="148.7822" x2="148.7822" y1="488.7031" y2="508.7031"/><polygon fill="#181818" points="144.7822,498.7031,148.7822,508.7031,152.7822,498.7031,148.7822,502.7031" style="stroke:#181818;stroke-width:1;"/><line style="stroke:#181818;stroke-width:1;" x1="148.7822" x2="148.7822" y1="542.6719" y2="566.8086"/><polygon fill="#181818" points="144.7822,556.8086,148.7822,566.8086,152.7822,556.8086,148.7822,560.8086" style="stroke:#181818;stroke-width:1;"/><line style="stroke:#181818;stroke-width:1;" x1="148.7822" x2="148.7822" y1="703.1484" y2="731.6641"/><polygon fill="#181818" points="144.7822,721.6641,148.7822,731.6641,152.7822,721.6641,148.7822,725.6641" style="stroke:#181818;stroke-width:1;"/><line style="stroke:#181818;stroke-width:1;" x1="148.7822" x2="148.7822" y1="644.7773" y2="669.1797"/><polygon fill="#181818" points="144.7822,659.1797,148.7822,669.1797,152.7822,659.1797,148.7822,663.1797" style="stroke:#181818;stroke-width:1;"/><line style="stroke:#181818;stroke-width:1;" x1="208.5071" x2="226.2334" y1="632.7773" y2="632.7773"/><polygon fill="#181818" points="222.2334,701.6641,226.2334,711.6641,230.2334,701.6641,226.2334,705.6641" style="stroke:#181818;stroke-width:1;"/><line style="stroke:#181818;stroke-width:1;" x1="226.2334" x2="226.2334" y1="632.7773" y2="775.6641"/><line style="stroke:#181818;stroke-width:1;" x1="226.2334" x2="148.7822" y1="775.6641" y2="775.6641"/><line style="stroke:#181818;stroke-width:1;" x1="148.7822" x2="148.7822" y1="775.6641" y2="795.6641"/><polygon fill="#181818" points="144.7822,785.6641,148.7822,795.6641,152.7822,785.6641,148.7822,789.6641" style="stroke:#181818;stroke-width:1;"/><line style="stroke:#181818;stroke-width:1;" x1="148.7822" x2="148.7822" y1="600.7773" y2="620.7773"/><polygon fill="#181818" points="144.7822,610.7773,148.7822,620.7773,152.7822,610.7773,148.7822,614.7773" style="stroke:#181818;stroke-width:1;"/><line style="stroke:#181818;stroke-width:1;" x1="148.7822" x2="148.7822" y1="829.6328" y2="849.6328"/><polygon fill="#181818" points="144.7822,839.6328,148.7822,849.6328,152.7822,839.6328,148.7822,843.6328" style="stroke:#181818;stroke-width:1;"/><line style="stroke:#181818;stroke-width:1;" x1="148.7822" x2="148.7822" y1="408.4375" y2="454.7344"/><polygon fill="#181818" points="144.7822,444.7344,148.7822,454.7344,152.7822,444.7344,148.7822,448.7344" style="stroke:#181818;stroke-width:1;"/><line style="stroke:#181818;stroke-width:1;" x1="148.7822" x2="148.7822" y1="316.1719" y2="374.4688"/><polygon fill="#181818" points="144.7822,364.4688,148.7822,374.4688,152.7822,364.4688,148.7822,368.4688" style="stroke:#181818;stroke-width:1;"/><line style="stroke:#181818;stroke-width:1;" x1="148.7822" x2="148.7822" y1="883.6016" y2="953.8984"/><polygon fill="#181818" points="144.7822,943.8984,148.7822,953.8984,152.7822,943.8984,148.7822,947.8984" style="stroke:#181818;stroke-width:1;"/><line style="stroke:#181818;stroke-width:1;" x1="148.7822" x2="148.7822" y1="74" y2="120.2969"/><polygon fill="#181818" points="144.7822,110.2969,148.7822,120.2969,152.7822,110.2969,148.7822,114.2969" style="stroke:#181818;stroke-width:1;"/><line style="stroke:#181818;stroke-width:1;" x1="148.7822" x2="148.7822" y1="987.8672" y2="1047.8672"/><line style="stroke:#181818;stroke-width:1;" x1="148.7822" x2="298.5645" y1="1047.8672" y2="1047.8672"/><polygon fill="#181818" points="294.5645,546.8086,298.5645,536.8086,302.5645,546.8086,298.5645,542.8086" style="stroke:#181818;stroke-width:1;"/><line style="stroke:#181818;stroke-width:1;" x1="298.5645" x2="298.5645" y1="62" y2="1047.8672"/><line style="stroke:#181818;stroke-width:1;" x1="298.5645" x2="160.7822" y1="62" y2="62"/><polygon fill="#181818" points="170.7822,58,160.7822,62,170.7822,66,166.7822,62" style="stroke:#181818;stroke-width:1;"/><line style="stroke:#181818;stroke-width:1;" x1="148.7822" x2="148.7822" y1="30" y2="50"/><polygon fill="#181818" points="144.7822,40,148.7822,50,152.7822,40,148.7822,44" style="stroke:#181818;stroke-width:1;"/><!--SRC=[PL91Ki904Bpd5NqoUF41vc1Hn5Ah52buGKW6MTpihhkpSB1uWB_mYj_8nvoG1B4upcnlJq_tf6awKuwqCWHCSbGHfLPaE0bSU4uIJuuAHW8ugHKhQ_2Kt-DJEi3jYmg4vXiR6pqgWYwmz8KfrmJdbIcLApHb7NRYcqDn9AZIAFC6ODKSAjKS1bZU7BQahNDKYmuGen1sRjcP0eU1pTQrObp1nR1kU_ladyW7nOznEUXyZLlo73srV3NvD-f5pABMcDD75EeiEO8lECRbiUgeEeMbfbRxKQ5ujhF-VQNjJYpC1jI2E3fCRKKtcz2EbJqTcKgMfj2F4jXpMtSy5Cut1DGAe-PBnfH_RxYx1g_9O6IZkkw1GZFslldXFWBNHvgTtWDRrnUa9RAHiMRuBPhKwgJdBAM8PLIwwY_YjDXC34SHsTQ24-CWrWOiefZQOVQNQIp8RqbEP99FE-GGp9nQMxHLdGTdj5sclm00]--></g></svg>