<svg xmlns="http://www.w3.org/2000/svg" xmlns:xlink="http://www.w3.org/1999/xlink" contentStyleType="text/css" data-diagram-type="ACTIVITY" height="1247px" preserveAspectRatio="none" style="width:438px;height:1247px;background:#FFFFFF;" version="1.1" viewBox="0 0 438 1247" width="438px" zoomAndPan="magnify"><defs/><g><ellipse cx="182.4321" cy="20" fill="#222222" rx="10" ry="10" style="stroke:#222222;stroke-width:1;"/><rect fill="none" height="505.7886" style="stroke:#000000;stroke-width:1.5;" width="350.5874" x="17.3833" y="84"/><path d="M51.1382,84 L51.1382,93.2969 L41.1382,103.2969 L17.3833,103.2969" fill="none" style="stroke:#000000;stroke-width:1.5;"/><text fill="#000000" font-family="sans-serif" font-size="14" lengthAdjust="spacing" textLength="23.7549" x="20.3833" y="97.9951">IDE</text><rect fill="#F1F1F1" height="33.9688" rx="12.5" ry="12.5" style="stroke:#181818;stroke-width:0.5;" width="234.6699" x="65.0972" y="120.2969"/><text fill="#000000" font-family="sans-serif" font-size="12" lengthAdjust="spacing" textLength="214.6699" x="75.0972" y="141.4355">Mise &#224; jour de la branche principale</text><rect fill="#F1F1F1" height="33.9688" rx="12.5" ry="12.5" style="stroke:#181818;stroke-width:0.5;" width="205.8008" x="79.5317" y="174.2656"/><text fill="#000000" font-family="sans-serif" font-size="12" lengthAdjust="spacing" textLength="185.8008" x="89.5317" y="195.4043">Cr&#233;ation d'une branche d&#233;di&#233;e</text><rect fill="#F1F1F1" height="33.9688" rx="12.5" ry="12.5" style="stroke:#181818;stroke-width:0.5;" width="217.7656" x="73.5493" y="272.2344"/><text fill="#000000" font-family="sans-serif" font-size="12" lengthAdjust="spacing" textLength="197.7656" x="83.5493" y="293.373">D&#233;veloppement et ajout de tests</text><rect fill="#F1F1F1" height="33.9688" rx="12.5" ry="12.5" style="stroke:#181818;stroke-width:0.5;" width="168.7461" x="98.0591" y="326.2031"/><text fill="#000000" font-family="sans-serif" font-size="12" lengthAdjust="spacing" textLength="148.7461" x="108.0591" y="347.3418">Commit (commande Git)</text><rect fill="#F1F1F1" height="33.9688" rx="12.5" ry="12.5" style="stroke:#181818;stroke-width:0.5;" width="310.0977" x="27.3833" y="380.1719"/><text fill="#000000" font-family="sans-serif" font-size="12" lengthAdjust="spacing" textLength="290.0977" x="37.3833" y="401.3105">Lancement automatique du pre-commit (Husky)</text><polygon fill="#F1F1F1" points="182.4321,228.2344,194.4321,240.2344,182.4321,252.2344,170.4321,240.2344,182.4321,228.2344" style="stroke:#181818;stroke-width:0.5;"/><polygon fill="#F1F1F1" points="135.8191,434.1406,229.0452,434.1406,241.0452,446.1406,229.0452,458.1406,135.8191,458.1406,123.8191,446.1406,135.8191,434.1406" style="stroke:#181818;stroke-width:0.5;"/><text fill="#000000" font-family="sans-serif" font-size="11" lengthAdjust="spacing" textLength="20.6733" x="186.4321" y="468.3511">non</text><text fill="#000000" font-family="sans-serif" font-size="11" lengthAdjust="spacing" textLength="93.2261" x="135.8191" y="449.9487">Erreur du linter ?</text><text fill="#000000" font-family="sans-serif" font-size="11" lengthAdjust="spacing" textLength="16.7578" x="241.0452" y="443.5464">oui</text><rect fill="#F1F1F1" height="33.9688" rx="12.5" ry="12.5" style="stroke:#181818;stroke-width:0.5;" width="132.4824" x="116.1909" y="489.8511"/><text fill="#000000" font-family="sans-serif" font-size="12" lengthAdjust="spacing" textLength="112.4824" x="126.1909" y="510.9897">Commit enregistr&#233;</text><rect fill="#F1F1F1" height="33.9688" rx="12.5" ry="12.5" style="stroke:#181818;stroke-width:0.5;" width="48.6992" x="158.0825" y="543.8198"/><text fill="#000000" font-family="sans-serif" font-size="12" lengthAdjust="spacing" textLength="28.6992" x="168.0825" y="564.9585">Push</text><rect fill="none" height="550.4063" style="stroke:#000000;stroke-width:1.5;" width="389.4604" x="11" y="599.7886"/><path d="M69.5146,599.7886 L69.5146,609.0854 L59.5146,619.0854 L11,619.0854" fill="none" style="stroke:#000000;stroke-width:1.5;"/><text fill="#000000" font-family="sans-serif" font-size="14" lengthAdjust="spacing" textLength="48.5146" x="14" y="613.7837">GitHub</text><rect fill="#F1F1F1" height="33.9688" rx="12.5" ry="12.5" style="stroke:#181818;stroke-width:0.5;" width="196.8418" x="84.0112" y="636.0854"/><text fill="#000000" font-family="sans-serif" font-size="12" lengthAdjust="spacing" textLength="176.8418" x="94.0112" y="657.2241">Ouverture d'une Pull Request</text><rect fill="none" height="404.1719" style="stroke:#000000;stroke-width:1.5;" width="369.4604" x="21" y="680.0542"/><path d="M135.3506,680.0542 L135.3506,689.3511 L125.3506,699.3511 L21,699.3511" fill="none" style="stroke:#000000;stroke-width:1.5;"/><text fill="#000000" font-family="sans-serif" font-size="14" lengthAdjust="spacing" textLength="104.3506" x="24" y="694.0493">GitHub Actions</text><rect fill="#F1F1F1" height="33.9688" rx="12.5" ry="12.5" style="stroke:#181818;stroke-width:0.5;" width="206.8496" x="79.0073" y="760.3511"/><text fill="#000000" font-family="sans-serif" font-size="12" lengthAdjust="spacing" textLength="186.8496" x="89.0073" y="781.4897">D&#233;clenchement du workflow CI</text><rect fill="#F1F1F1" height="33.9688" rx="12.5" ry="12.5" style="stroke:#181818;stroke-width:0.5;" width="298.7305" x="33.0669" y="814.3198"/><text fill="#000000" font-family="sans-serif" font-size="12" lengthAdjust="spacing" textLength="278.7305" x="43.0669" y="835.4585">Setup Node.js et installation des d&#233;pendances</text><rect fill="#F1F1F1" height="33.9688" rx="12.5" ry="12.5" style="stroke:#181818;stroke-width:0.5;" width="215.2227" x="74.8208" y="868.2886"/><text fill="#000000" font-family="sans-serif" font-size="12" lengthAdjust="spacing" textLength="195.2227" x="84.8208" y="889.4272">Ex&#233;cution des tests automatis&#233;s</text><polygon fill="#F1F1F1" points="153.4497,922.2573,211.4146,922.2573,223.4146,934.2573,211.4146,946.2573,153.4497,946.2573,141.4497,934.2573,153.4497,922.2573" style="stroke:#181818;stroke-width:0.5;"/><text fill="#000000" font-family="sans-serif" font-size="11" lengthAdjust="spacing" textLength="57.9648" x="153.4497" y="938.0654">Tests OK ?</text><text fill="#000000" font-family="sans-serif" font-size="11" lengthAdjust="spacing" textLength="16.7578" x="124.6919" y="931.6631">oui</text><text fill="#000000" font-family="sans-serif" font-size="11" lengthAdjust="spacing" textLength="20.6733" x="223.4146" y="931.6631">non</text><rect fill="#F1F1F1" height="33.9688" rx="12.5" ry="12.5" style="stroke:#181818;stroke-width:0.5;" width="115.3789" x="41" y="956.2573"/><text fill="#000000" font-family="sans-serif" font-size="12" lengthAdjust="spacing" textLength="95.3789" x="51" y="977.396">Workflow r&#233;ussi</text><rect fill="#F1F1F1" height="33.9688" rx="12.5" ry="12.5" style="stroke:#181818;stroke-width:0.5;" width="179.5918" x="176.3789" y="956.2573"/><text fill="#000000" font-family="sans-serif" font-size="12" lengthAdjust="spacing" textLength="159.5918" x="186.3789" y="977.396">Corriger le code dans l'IDE</text><polygon fill="#F1F1F1" points="182.4321,996.2261,194.4321,1008.2261,182.4321,1020.2261,170.4321,1008.2261,182.4321,996.2261" style="stroke:#181818;stroke-width:0.5;"/><polygon fill="#F1F1F1" points="182.4321,716.3511,194.4321,728.3511,182.4321,740.3511,170.4321,728.3511,182.4321,716.3511" style="stroke:#181818;stroke-width:0.5;"/><polygon fill="#F1F1F1" points="126.3848,1040.2261,238.4795,1040.2261,250.4795,1052.2261,238.4795,1064.2261,126.3848,1064.2261,114.3848,1052.2261,126.3848,1040.2261" style="stroke:#181818;stroke-width:0.5;"/><text fill="#000000" font-family="sans-serif" font-size="11" lengthAdjust="spacing" textLength="20.6733" x="186.4321" y="1074.4365">non</text><text fill="#000000" font-family="sans-serif" font-size="11" lengthAdjust="spacing" textLength="112.0947" x="126.3848" y="1056.0342">Push de correction ?</text><text fill="#000000" font-family="sans-serif" font-size="11" lengthAdjust="spacing" textLength="16.7578" x="250.4795" y="1049.6318">oui</text><rect fill="#F1F1F1" height="33.9688" rx="12.5" ry="12.5" style="stroke:#181818;stroke-width:0.5;" width="169.4082" x="97.728" y="1104.2261"/><text fill="#000000" font-family="sans-serif" font-size="12" lengthAdjust="spacing" textLength="149.4082" x="107.728" y="1125.3647">Merge de la Pull Request</text><polygon fill="#F1F1F1" points="182.4321,50,194.4321,62,182.4321,74,170.4321,62,182.4321,50" style="stroke:#181818;stroke-width:0.5;"/><polygon fill="#F1F1F1" points="70.5415,1170.1948,294.3228,1170.1948,306.3228,1182.1948,294.3228,1194.1948,70.5415,1194.1948,58.5415,1182.1948,70.5415,1170.1948" style="stroke:#181818;stroke-width:0.5;"/><text fill="#000000" font-family="sans-serif" font-size="11" lengthAdjust="spacing" textLength="223.7813" x="70.5415" y="1186.0029">Nouvelles fonctionnalit&#233;s &#224; d&#233;velopper ?</text><text fill="#000000" font-family="sans-serif" font-size="11" lengthAdjust="spacing" textLength="16.7578" x="306.3228" y="1179.6006">oui</text><ellipse cx="182.4321" cy="1225.1948" fill="none" rx="11" ry="11" style="stroke:#222222;stroke-width:1;"/><ellipse cx="182.4321" cy="1225.1948" fill="#222222" rx="6" ry="6" style="stroke:#222222;stroke-width:1;"/><line style="stroke:#181818;stroke-width:1;" x1="182.4321" x2="182.4321" y1="154.2656" y2="174.2656"/><polygon fill="#181818" points="178.4321,164.2656,182.4321,174.2656,186.4321,164.2656,182.4321,168.2656" style="stroke:#181818;stroke-width:1;"/><line style="stroke:#181818;stroke-width:1;" x1="182.4321" x2="182.4321" y1="306.2031" y2="326.2031"/><polygon fill="#181818" points="178.4321,316.2031,182.4321,326.2031,186.4321,316.2031,182.4321,320.2031" style="stroke:#181818;stroke-width:1;"/><line style="stroke:#181818;stroke-width:1;" x1="182.4321" x2="182.4321" y1="360.1719" y2="380.1719"/><polygon fill="#181818" points="178.4321,370.1719,182.4321,380.1719,186.4321,370.1719,182.4321,374.1719" style="stroke:#181818;stroke-width:1;"/><line style="stroke:#181818;stroke-width:1;" x1="182.4321" x2="182.4321" y1="252.2344" y2="272.2344"/><polygon fill="#181818" points="178.4321,262.2344,182.4321,272.2344,186.4321,262.2344,182.4321,266.2344" style="stroke:#181818;stroke-width:1;"/><line style="stroke:#181818;stroke-width:1;" x1="241.0452" x2="349.481" y1="446.1406" y2="446.1406"/><polygon fill="#181818" points="345.481,353.1875,349.481,343.1875,353.481,353.1875,349.481,349.1875" style="stroke:#181818;stroke-width:1;"/><line style="stroke:#181818;stroke-width:1;" x1="349.481" x2="349.481" y1="240.2344" y2="446.1406"/><line style="stroke:#181818;stroke-width:1;" x1="349.481" x2="194.4321" y1="240.2344" y2="240.2344"/><polygon fill="#181818" points="204.4321,236.2344,194.4321,240.2344,204.4321,244.2344,200.4321,240.2344" style="stroke:#181818;stroke-width:1;"/><line style="stroke:#181818;stroke-width:1;" x1="182.4321" x2="182.4321" y1="414.1406" y2="434.1406"/><polygon fill="#181818" points="178.4321,424.1406,182.4321,434.1406,186.4321,424.1406,182.4321,428.1406" style="stroke:#181818;stroke-width:1;"/><line style="stroke:#181818;stroke-width:1;" x1="182.4321" x2="182.4321" y1="208.2344" y2="228.2344"/><polygon fill="#181818" points="178.4321,218.2344,182.4321,228.2344,186.4321,218.2344,182.4321,222.2344" style="stroke:#181818;stroke-width:1;"/><line style="stroke:#181818;stroke-width:1;" x1="182.4321" x2="182.4321" y1="458.1406" y2="489.8511"/><polygon fill="#181818" points="178.4321,479.8511,182.4321,489.8511,186.4321,479.8511,182.4321,483.8511" style="stroke:#181818;stroke-width:1;"/><line style="stroke:#181818;stroke-width:1;" x1="182.4321" x2="182.4321" y1="523.8198" y2="543.8198"/><polygon fill="#181818" points="178.4321,533.8198,182.4321,543.8198,186.4321,533.8198,182.4321,537.8198" style="stroke:#181818;stroke-width:1;"/><line style="stroke:#181818;stroke-width:1;" x1="182.4321" x2="182.4321" y1="794.3198" y2="814.3198"/><polygon fill="#181818" points="178.4321,804.3198,182.4321,814.3198,186.4321,804.3198,182.4321,808.3198" style="stroke:#181818;stroke-width:1;"/><line style="stroke:#181818;stroke-width:1;" x1="182.4321" x2="182.4321" y1="848.2886" y2="868.2886"/><polygon fill="#181818" points="178.4321,858.2886,182.4321,868.2886,186.4321,858.2886,182.4321,862.2886" style="stroke:#181818;stroke-width:1;"/><line style="stroke:#181818;stroke-width:1;" x1="141.4497" x2="98.6895" y1="934.2573" y2="934.2573"/><line style="stroke:#181818;stroke-width:1;" x1="98.6895" x2="98.6895" y1="934.2573" y2="956.2573"/><polygon fill="#181818" points="94.6895,946.2573,98.6895,956.2573,102.6895,946.2573,98.6895,950.2573" style="stroke:#181818;stroke-width:1;"/><line style="stroke:#181818;stroke-width:1;" x1="223.4146" x2="266.1748" y1="934.2573" y2="934.2573"/><line style="stroke:#181818;stroke-width:1;" x1="266.1748" x2="266.1748" y1="934.2573" y2="956.2573"/><polygon fill="#181818" points="262.1748,946.2573,266.1748,956.2573,270.1748,946.2573,266.1748,950.2573" style="stroke:#181818;stroke-width:1;"/><line style="stroke:#181818;stroke-width:1;" x1="98.6895" x2="98.6895" y1="990.2261" y2="1008.2261"/><line style="stroke:#181818;stroke-width:1;" x1="98.6895" x2="170.4321" y1="1008.2261" y2="1008.2261"/><polygon fill="#181818" points="160.4321,1004.2261,170.4321,1008.2261,160.4321,1012.2261,164.4321,1008.2261" style="stroke:#181818;stroke-width:1;"/><line style="stroke:#181818;stroke-width:1;" x1="266.1748" x2="266.1748" y1="990.2261" y2="1008.2261"/><line style="stroke:#181818;stroke-width:1;" x1="266.1748" x2="194.4321" y1="1008.2261" y2="1008.2261"/><polygon fill="#181818" points="204.4321,1004.2261,194.4321,1008.2261,204.4321,1012.2261,200.4321,1008.2261" style="stroke:#181818;stroke-width:1;"/><line style="stroke:#181818;stroke-width:1;" x1="182.4321" x2="182.4321" y1="902.2573" y2="922.2573"/><polygon fill="#181818" points="178.4321,912.2573,182.4321,922.2573,186.4321,912.2573,182.4321,916.2573" style="stroke:#181818;stroke-width:1;"/><line style="stroke:#181818;stroke-width:1;" x1="182.4321" x2="182.4321" y1="740.3511" y2="760.3511"/><polygon fill="#181818" points="178.4321,750.3511,182.4321,760.3511,186.4321,750.3511,182.4321,754.3511" style="stroke:#181818;stroke-width:1;"/><line style="stroke:#181818;stroke-width:1;" x1="250.4795" x2="374.4604" y1="1052.2261" y2="1052.2261"/><polygon fill="#181818" points="370.4604,892.7886,374.4604,882.7886,378.4604,892.7886,374.4604,888.7886" style="stroke:#181818;stroke-width:1;"/><line style="stroke:#181818;stroke-width:1;" x1="374.4604" x2="374.4604" y1="728.3511" y2="1052.2261"/><line style="stroke:#181818;stroke-width:1;" x1="374.4604" x2="194.4321" y1="728.3511" y2="728.3511"/><polygon fill="#181818" points="204.4321,724.3511,194.4321,728.3511,204.4321,732.3511,200.4321,728.3511" style="stroke:#181818;stroke-width:1;"/><line style="stroke:#181818;stroke-width:1;" x1="182.4321" x2="182.4321" y1="1020.2261" y2="1040.2261"/><polygon fill="#181818" points="178.4321,1030.2261,182.4321,1040.2261,186.4321,1030.2261,182.4321,1034.2261" style="stroke:#181818;stroke-width:1;"/><line style="stroke:#181818;stroke-width:1;" x1="182.4321" x2="182.4321" y1="670.0542" y2="716.3511"/><polygon fill="#181818" points="178.4321,706.3511,182.4321,716.3511,186.4321,706.3511,182.4321,710.3511" style="stroke:#181818;stroke-width:1;"/><line style="stroke:#181818;stroke-width:1;" x1="182.4321" x2="182.4321" y1="1064.2261" y2="1104.2261"/><polygon fill="#181818" points="178.4321,1094.2261,182.4321,1104.2261,186.4321,1094.2261,182.4321,1098.2261" style="stroke:#181818;stroke-width:1;"/><line style="stroke:#181818;stroke-width:1;" x1="182.4321" x2="182.4321" y1="577.7886" y2="636.0854"/><polygon fill="#181818" points="178.4321,626.0854,182.4321,636.0854,186.4321,626.0854,182.4321,630.0854" style="stroke:#181818;stroke-width:1;"/><line style="stroke:#181818;stroke-width:1;" x1="182.4321" x2="182.4321" y1="74" y2="120.2969"/><polygon fill="#181818" points="178.4321,110.2969,182.4321,120.2969,186.4321,110.2969,182.4321,114.2969" style="stroke:#181818;stroke-width:1;"/><line style="stroke:#181818;stroke-width:1;" x1="306.3228" x2="412.4604" y1="1182.1948" y2="1182.1948"/><polygon fill="#181818" points="408.4604,617.9526,412.4604,607.9526,416.4604,617.9526,412.4604,613.9526" style="stroke:#181818;stroke-width:1;"/><line style="stroke:#181818;stroke-width:1;" x1="412.4604" x2="412.4604" y1="62" y2="1182.1948"/><line style="stroke:#181818;stroke-width:1;" x1="412.4604" x2="194.4321" y1="62" y2="62"/><polygon fill="#181818" points="204.4321,58,194.4321,62,204.4321,66,200.4321,62" style="stroke:#181818;stroke-width:1;"/><line style="stroke:#181818;stroke-width:1;" x1="182.4321" x2="182.4321" y1="1138.1948" y2="1170.1948"/><polygon fill="#181818" points="178.4321,1160.1948,182.4321,1170.1948,186.4321,1160.1948,182.4321,1164.1948" style="stroke:#181818;stroke-width:1;"/><line style="stroke:#181818;stroke-width:1;" x1="182.4321" x2="182.4321" y1="30" y2="50"/><polygon fill="#181818" points="178.4321,40,182.4321,50,186.4321,40,182.4321,44" style="stroke:#181818;stroke-width:1;"/><line style="stroke:#181818;stroke-width:1;" x1="182.4321" x2="182.4321" y1="1194.1948" y2="1214.1948"/><polygon fill="#181818" points="178.4321,1204.1948,182.4321,1214.1948,186.4321,1204.1948,182.4321,1208.1948" style="stroke:#181818;stroke-width:1;"/><!--SRC=[VPDDRjim48NtEiNiP2tQ0zIB8d2CncYR64s1hXbfR4z2aomvZ1iKkKktEeSkrY4jAL82P2LHUlFtlM5PbbjogCaWh3RG8EZoOhifYi3ASr5uTAYu071o92PhO7EvXh_o1U3JTme8tJ-ujz7dM0LtNfdwWE0ycPgSqhWyQrU-QrLEq9HHgWt2fciRwjfUDjRBCPTT-uZQEeT7D0p8eAGKfrACWSDo4AxiyKWCYrgUoiZlByJL-FURL3fdK97jKRhu7QLmb2RnGzs7NiNmy5HDku3JWJJ2OkqzflaY22P63vyhe00B6wa2OoNMM5EzQWMDnpq5bgd7FhOn7DBXkPW1bLwlujt0z2O-ekVeiUUqZLh33vIE0o-Bh7aJUb6dK-XJlA9uvbXhJBWp1PdaPFt3JjkJcBvyqTqYHmVNji6Fzo7X9YDxe7Nl6uRabaFJ9A1X4hZ-8nNYgChcZB13rqwqumljOF4p2s- -9gHyG7E6Eaeayw-XKG4PGw2NHAXb-QReU_pUqrvC4kTg6GIaro1BBLix2JKDxOePhC7iv57QhrhoOCRwZjtFHNyFqE-nlm1plx9cNk7QYiDQ2wQTDRc2KPfO8AMhr8mhFzkpT26j-my0]--></g></svg>